<svg width="52" height="60" viewBox="0 0 52 60" fill="none" xmlns="http://www.w3.org/2000/svg">
<path d="M51.2371 48.7512L49.6105 21.0996C49.4383 18.1734 47.0078 15.8813 44.077 15.8813H40.4371V15.7078C40.4359 7.04648 33.9602 0 25.9996 0C18.0391 0 11.5633 7.04648 11.5633 15.7066V15.8801H7.92344C4.99258 15.8801 2.56211 18.1723 2.38985 21.0984L0.762111 48.7512C0.588674 51.7031 1.61055 54.5133 3.63789 56.6648C5.66758 58.8152 8.41328 60 11.3688 60H40.6293C43.5859 60 46.3316 58.8152 48.3602 56.6637C50.3887 54.5133 51.4105 51.7031 51.2371 48.7512ZM36.9719 15.8813H15.0273V15.7078C15.0273 8.95664 19.9492 3.46406 25.9996 3.46406C32.05 3.46406 36.9719 8.95664 36.9719 15.7078V15.8813ZM45.8395 54.2871C44.473 55.7367 42.6227 56.5359 40.6293 56.5359H11.3688C9.37539 56.5359 7.525 55.7379 6.1586 54.2871C4.79102 52.8375 4.10313 50.9426 4.22031 48.9539L5.84688 21.3023C5.91133 20.2043 6.82305 19.3453 7.92227 19.3453H44.0758C45.175 19.3453 46.0867 20.2055 46.1512 21.3023L47.7777 48.9539C47.8961 50.9437 47.207 52.8375 45.8395 54.2871Z" fill="black"/>
</svg>
