<svg xmlns="http://www.w3.org/2000/svg" xmlns:xlink="http://www.w3.org/1999/xlink" width="80" height="47"><defs><path id="A" d="M0 .034565h13.84564v25.827722H0z"/><path id="B" d="M.24705.243682h13.301966v26.490015H.24705z"/></defs><g fill="none" fill-rule="evenodd"><path d="M6.981397 13.07645c1.025627-.170664 2.439864-.707228 2.933966-1.38124 1.072-1.461442.53234-6.996668.45288-8.372238-.046644-.79472-.616407-1.6016-1.105356-2.187573C8.425736.142742 7.29082.025005 6.558888.012314 5.311702-.0147 2.8976.12384 1.79387 1.4932.619634 2.9495.731363 5.367694.94126 7.123477c.75878 6.36856 3.478508 6.378552 6.040136 5.952973m18.07417-.512368c1.741288.520902 4.035254.847647 5.8446.541155 1.312-.22062 1.989424-1.540293 2.120678-2.736558.243254-2.206205.381288-4.56498.114712-6.765246-.494102-4.11996-5.475525-4.176398-8.42522-2.786785-.513085.237093-.922847 2.0323-1.00095 2.6083-.183322 1.3745-.191458 3.2572-.290712 5.05078-.07756 1.333444.046644 3.61418 1.63688 4.088365m25.649096.682724c4.164068 0 4.59173-4.2674 4.711864-7.707406.049356-1.430388-.15105-2.980942-1.42888-3.806176C52.635227.854803 50.64933.129213 49.040922.012827c-1.52434-.107475-2.31566 2.03176-2.689898 3.122172-.36556 1.056116-.59634 2.01394-.775322 3.17294-.25112 1.615633-.43905 3.592577.30156 4.970577.725966 1.346136 3.44705 1.968302 4.8274 1.968302m24.078388-.606668c3.446237-1.59187 2.008407-7.617754.869966-10.242246C74.788475.400978 74.220068-.178252 72.14983.04966c-2.845017.316754-4.005152 2.016-4.506034 2.871577-1.232814 2.113042-.387525 5.826596-.00705 7.719018.578712 2.8832 4.8 3.084637 7.146305 1.999897" fill="#fff"/><g transform="translate(0 20.17)"><mask id="C" fill="#fff"><use xlink:href="#A"/></mask><path fill="#fff" mask="url(#C)" d="M-.000054 25.862287h4.18712V15.640833h6.065627l.861017-3.777012H4.187064V3.810227h8.785627l.87295-3.775662H-.000054z"/></g><path d="M52.941424 29.467636c0 1.842735-.691797 2.562114-2.464813 2.562114h-2.35634v-8.053594h2.35634c1.773017 0 2.464813.71938 2.464813 2.562114v2.929365zm4.185492.608394v-4.181528c0-3.725705-2.250305-5.694008-6.506305-5.694008h-6.686915v25.827722h4.186576V35.771928h2.2446l3.48095 10.256288h4.310237l-3.868475-10.943263c1.884746-.899224 2.839322-2.580477 2.839322-5.008923zm18.52583 3.850922l3.9135-13.726538H75.27227L72.01993 32.02967h-1.9455V20.200414h-4.186847v25.827182h4.186847v-10.26034h1.963932l3.461966 10.26034h4.30834z" fill="#fff"/><g transform="translate(21.42 19.63)"><mask id="D" fill="#fff"><use xlink:href="#B"/></mask><path d="M9.3646 20.282073c0 1.841925-.689085 2.675-2.465627 2.675h-.00217c-1.776542 0-2.464814-.833065-2.464814-2.675V6.695144c0-1.841925.68827-2.675 2.464814-2.675h.00217c1.776542 0 2.465627.833065 2.465627 2.675v13.58693zM7.03973.243682h-.283932C2.496814.243682.24705 2.212254.24705 5.93742v15.10238c0 3.725165 2.249763 5.694007 6.508746 5.694007h.283932c4.258983 0 6.509288-1.968842 6.509288-5.694007V5.93742c0-3.725165-2.250305-5.693737-6.509288-5.693737z" fill="#fff" mask="url(#D)"/></g></g></svg>